<svg xmlns="http://www.w3.org/2000/svg" x="0px" y="0px" width="72px" height="72px" viewBox="0 0 72 72" enable-background="new 0 0 72 72">
                      <g>
                        <linearGradient id="SVGID_1_4_" gradientUnits="userSpaceOnUse" x1="47.3798" y1="-0.0376" x2="47.3798" y2="72.004">
                          <stop offset="0" stop-color="var(--color-stop-1)"/>
                          <stop offset="1" stop-color="var(--color-stop-2)"/>
                        </linearGradient>
                        <path fill="url(#SVGID_1_4_)" d="M47.395,26.605c-0.156,0-0.312-0.056-0.436-0.169c-0.265-0.241-0.285-0.651-0.044-0.917&#9;&#9;&#9;c4.517-4.971,6.563-11.747,5.594-18.344c-1.346,1.262-2.787,2.151-4.19,3.017c-2.455,1.515-4.774,2.945-6.361,6.239&#9;&#9;&#9;c-0.102,0.226-0.328,0.383-0.592,0.383c-0.358,0-0.649-0.29-0.649-0.648v-0.149l0.064-0.133c1.752-3.647,4.347-5.248,6.856-6.797&#9;&#9;&#9;c1.644-1.014,3.344-2.063,4.808-3.702l0.86-0.963l0.259,1.265c1.512,7.38-0.614,15.12-5.689,20.705&#9;&#9;&#9;C47.748,26.533,47.572,26.605,47.395,26.605z"/>
                        <linearGradient id="SVGID_2_4_" gradientUnits="userSpaceOnUse" x1="45.1335" y1="-0.0376" x2="45.1335" y2="72.004">
                          <stop offset="0" stop-color="var(--color-stop-1)"/>
                          <stop offset="1" stop-color="var(--color-stop-2)"/>
                        </linearGradient>
                        <path fill="url(#SVGID_2_4_)" d="M44.008,23.739c-0.11,0-0.222-0.028-0.324-0.087c-0.31-0.179-0.417-0.576-0.237-0.886l2.249-3.896&#9;&#9;&#9;c0.179-0.31,0.576-0.417,0.886-0.237c0.31,0.179,0.417,0.576,0.237,0.886l-2.249,3.896C44.451,23.623,44.233,23.739,44.008,23.739z&#9;&#9;&#9;"/>
                        <linearGradient id="SVGID_3_4_" gradientUnits="userSpaceOnUse" x1="58.3442" y1="-0.0376" x2="58.3442" y2="72.004">
                          <stop offset="0" stop-color="var(--color-stop-1)"/>
                          <stop offset="1" stop-color="var(--color-stop-2)"/>
                        </linearGradient>
                        <path fill="url(#SVGID_3_4_)" d="M50.894,33.648c-0.275,0-0.529-0.176-0.618-0.451c-0.109-0.341,0.079-0.706,0.42-0.816&#9;&#9;&#9;c1.672-0.535,3.296-1.277,4.827-2.204l0.132-0.08c4.105-2.535,7.282-6.335,9.054-10.804c-1.799,0.421-3.487,0.469-5.131,0.516&#9;&#9;&#9;c-2.878,0.083-5.596,0.161-8.653,2.236c-0.297,0.201-0.7,0.124-0.901-0.172c-0.201-0.296-0.124-0.7,0.172-0.901&#9;&#9;&#9;c3.37-2.289,6.407-2.376,9.344-2.46c1.924-0.055,3.914-0.112,6.008-0.801l1.227-0.404l-0.408,1.225&#9;&#9;&#9;c-1.771,5.314-5.383,9.843-10.169,12.754L56.04,31.38c-1.572,0.936-3.236,1.688-4.948,2.236&#9;&#9;&#9;C51.026,33.638,50.959,33.648,50.894,33.648z"/>
                        <linearGradient id="SVGID_4_4_" gradientUnits="userSpaceOnUse" x1="51.3397" y1="-0.0376" x2="51.3397" y2="72.004">
                          <stop offset="0" stop-color="var(--color-stop-1)"/>
                          <stop offset="1" stop-color="var(--color-stop-2)"/>
                        </linearGradient>
                        <path fill="url(#SVGID_4_4_)" d="M49.393,29.473c-0.224,0-0.442-0.116-0.563-0.325c-0.179-0.31-0.073-0.707,0.238-0.886l3.895-2.248&#9;&#9;&#9;c0.311-0.179,0.707-0.073,0.886,0.238c0.179,0.31,0.073,0.707-0.238,0.886l-3.895,2.248C49.614,29.445,49.503,29.473,49.393,29.473&#9;&#9;&#9;z"/>
                        <linearGradient id="SVGID_5_4_" gradientUnits="userSpaceOnUse" x1="60.876" y1="-0.0376" x2="60.876" y2="72.004">
                          <stop offset="0" stop-color="var(--color-stop-1)"/>
                          <stop offset="1" stop-color="var(--color-stop-2)"/>
                        </linearGradient>
                        <path fill="url(#SVGID_5_4_)" d="M55.274,42.02c-1.672,0-3.351-0.177-5.011-0.538c-0.35-0.076-0.572-0.422-0.496-0.772&#9;&#9;&#9;c0.076-0.35,0.422-0.572,0.772-0.496c6.557,1.427,13.447-0.19,18.678-4.328c-1.762-0.534-3.256-1.339-4.71-2.121&#9;&#9;&#9;c-2.551-1.374-4.961-2.671-8.595-2.386l-0.051,0.002c-0.358,0-0.649-0.29-0.649-0.649c0-0.346,0.27-0.628,0.611-0.648&#9;&#9;&#9;c4.009-0.311,6.698,1.137,9.3,2.538c1.704,0.918,3.467,1.867,5.613,2.314L72,35.2l-0.967,0.857&#9;&#9;&#9;C66.665,39.93,61.02,42.02,55.274,42.02z"/>
                        <linearGradient id="SVGID_6_4_" gradientUnits="userSpaceOnUse" x1="53.4335" y1="-0.0376" x2="53.4335" y2="72.004">
                          <stop offset="0" stop-color="var(--color-stop-1)"/>
                          <stop offset="1" stop-color="var(--color-stop-2)"/>
                        </linearGradient>
                        <path fill="url(#SVGID_6_4_)" d="M55.683,37.132h-4.499c-0.358,0-0.649-0.291-0.649-0.649c0-0.358,0.29-0.649,0.649-0.649h4.499&#9;&#9;&#9;c0.358,0,0.649,0.29,0.649,0.649C56.332,36.841,56.041,37.132,55.683,37.132z"/>
                        <linearGradient id="SVGID_7_4_" gradientUnits="userSpaceOnUse" x1="56.4901" y1="-0.0376" x2="56.4901" y2="72.004">
                          <stop offset="0" stop-color="var(--color-stop-1)"/>
                          <stop offset="1" stop-color="var(--color-stop-2)"/>
                        </linearGradient>
                        <path fill="url(#SVGID_7_4_)" d="M61.567,54.045c-3.955,0-7.876-0.989-11.381-2.91l-0.054-0.029c-1.464-0.777-3.148-1.977-4.518-3.22&#9;&#9;&#9;c-0.265-0.241-0.285-0.651-0.045-0.917c0.241-0.265,0.651-0.285,0.916-0.044c1.311,1.189,2.92,2.334,4.305,3.061l0.093,0.052&#9;&#9;&#9;c4.267,2.313,9.164,3.174,13.939,2.471c-1.262-1.345-2.151-2.786-3.017-4.189c-1.516-2.457-2.948-4.777-6.254-6.367l-0.113-0.054&#9;&#9;&#9;l-0.084-0.092c-0.242-0.264-0.225-0.676,0.039-0.918c0.213-0.195,0.52-0.222,0.757-0.088c3.623,1.754,5.218,4.338,6.76,6.837&#9;&#9;&#9;c1.014,1.643,2.062,3.342,3.702,4.806l0.964,0.861l-1.266,0.259C64.742,53.886,63.152,54.045,61.567,54.045z"/>
                        <linearGradient id="SVGID_8_4_" gradientUnits="userSpaceOnUse" x1="50.8568" y1="-0.0376" x2="50.8568" y2="72.004">
                          <stop offset="0" stop-color="var(--color-stop-1)"/>
                          <stop offset="1" stop-color="var(--color-stop-2)"/>
                        </linearGradient>
                        <path fill="url(#SVGID_8_4_)" d="M52.804,46.908c-0.11,0-0.222-0.028-0.324-0.087l-3.896-2.25c-0.31-0.179-0.417-0.576-0.237-0.886&#9;&#9;&#9;c0.179-0.31,0.576-0.417,0.886-0.237l3.896,2.25c0.31,0.179,0.417,0.576,0.237,0.886C53.247,46.792,53.029,46.908,52.804,46.908z"/>
                        <linearGradient id="SVGID_9_4_" gradientUnits="userSpaceOnUse" x1="46.5222" y1="-0.0376" x2="46.5222" y2="72.004">
                          <stop offset="0" stop-color="var(--color-stop-1)"/>
                          <stop offset="1" stop-color="var(--color-stop-2)"/>
                        </linearGradient>
                        <path fill="url(#SVGID_9_4_)" d="M54.692,66.777l-1.226-0.409c-7.145-2.382-12.783-8.092-15.082-15.274&#9;&#9;&#9;c-0.109-0.341,0.079-0.706,0.42-0.816c0.342-0.109,0.706,0.079,0.816,0.42c2.047,6.396,6.896,11.557,13.098,14.016&#9;&#9;&#9;c-0.371-1.684-0.456-3.483-0.539-5.233c-0.152-3.219-0.295-6.262-2.096-8.402c-1.452-0.778-3.114-1.964-4.469-3.193&#9;&#9;&#9;c-0.265-0.241-0.285-0.651-0.045-0.917c0.241-0.265,0.651-0.285,0.916-0.044c1.311,1.189,2.92,2.334,4.305,3.061l0.114,0.061&#9;&#9;&#9;l0.08,0.092c2.168,2.485,2.331,5.94,2.488,9.281c0.099,2.102,0.201,4.276,0.812,6.129L54.692,66.777z"/>
                        <linearGradient id="SVGID_10_4_" gradientUnits="userSpaceOnUse" x1="44.299" y1="-0.0376" x2="44.299" y2="72.004">
                          <stop offset="0" stop-color="var(--color-stop-1)"/>
                          <stop offset="1" stop-color="var(--color-stop-2)"/>
                        </linearGradient>
                        <path fill="url(#SVGID_10_4_)" d="M45.424,53.937c-0.224,0-0.442-0.116-0.563-0.325l-2.248-3.895&#9;&#9;&#9;c-0.179-0.31-0.073-0.707,0.238-0.886c0.311-0.179,0.707-0.073,0.886,0.238l2.248,3.895c0.179,0.31,0.073,0.707-0.238,0.886&#9;&#9;&#9;C45.645,53.909,45.534,53.937,45.424,53.937z"/>
                        <linearGradient id="SVGID_11_4_" gradientUnits="userSpaceOnUse" x1="35.9732" y1="-0.0376" x2="35.9732" y2="72.004">
                          <stop offset="0" stop-color="var(--color-stop-1)"/>
                          <stop offset="1" stop-color="var(--color-stop-2)"/>
                        </linearGradient>
                        <path fill="url(#SVGID_11_4_)" d="M36.8,72l-0.857-0.966c-4.993-5.629-7.022-13.393-5.427-20.769l0.111-0.512h0.524&#9;&#9;&#9;c0.358,0,0.65,0.29,0.65,0.649c0,0.059-0.008,0.116-0.023,0.171c-1.407,6.556,0.211,13.431,4.338,18.647&#9;&#9;&#9;c0.533-1.749,1.339-3.254,2.124-4.718c1.386-2.585,2.695-5.027,2.383-8.584c-0.031-0.357,0.233-0.672,0.589-0.703&#9;&#9;&#9;c0.36-0.03,0.672,0.233,0.703,0.59c0.346,3.943-1.117,6.672-2.532,9.311c-0.923,1.721-1.876,3.5-2.319,5.621L36.8,72z"/>
                        <linearGradient id="SVGID_12_4_" gradientUnits="userSpaceOnUse" x1="35.5162" y1="-0.0376" x2="35.5162" y2="72.004">
                          <stop offset="0" stop-color="var(--color-stop-1)"/>
                          <stop offset="1" stop-color="var(--color-stop-2)"/>
                        </linearGradient>
                        <path fill="url(#SVGID_12_4_)" d="M35.516,56.333c-0.358,0-0.649-0.291-0.649-0.649v-4.499c0-0.358,0.29-0.649,0.649-0.649&#9;&#9;&#9;s0.649,0.291,0.649,0.649v4.499C36.165,56.042,35.875,56.333,35.516,56.333z"/>
                        <linearGradient id="SVGID_13_4_" gradientUnits="userSpaceOnUse" x1="24.617" y1="-0.0376" x2="24.617" y2="72.004">
                          <stop offset="0" stop-color="var(--color-stop-1)"/>
                          <stop offset="1" stop-color="var(--color-stop-2)"/>
                        </linearGradient>
                        <path fill="url(#SVGID_13_4_)" d="M18.692,67.576l-0.259-1.265c-1.119-5.467-0.267-11.172,2.4-16.071l0.028-0.053&#9;&#9;&#9;c0.822-1.535,2.011-3.204,3.261-4.578c0.241-0.265,0.651-0.285,0.916-0.043c0.265,0.241,0.284,0.651,0.043,0.917&#9;&#9;&#9;c-1.143,1.257-2.23,2.771-3,4.176v0.002l-0.08,0.147c-2.344,4.278-3.221,9.21-2.514,14.017c1.346-1.262,2.786-2.15,4.187-3.013&#9;&#9;&#9;c2.455-1.513,4.774-2.943,6.372-6.257c0.155-0.323,0.543-0.458,0.866-0.303c0.323,0.156,0.458,0.543,0.303,0.866&#9;&#9;&#9;c-1.763,3.656-4.354,5.253-6.86,6.798c-1.641,1.012-3.338,2.058-4.804,3.698L18.692,67.576z"/>
                        <linearGradient id="SVGID_14_4_" gradientUnits="userSpaceOnUse" x1="26.8636" y1="-0.0376" x2="26.8636" y2="72.004">
                          <stop offset="0" stop-color="var(--color-stop-1)"/>
                          <stop offset="1" stop-color="var(--color-stop-2)"/>
                        </linearGradient>
                        <path fill="url(#SVGID_14_4_)" d="M25.739,53.453c-0.11,0-0.222-0.028-0.324-0.087c-0.31-0.179-0.417-0.576-0.238-0.886l2.248-3.895&#9;&#9;&#9;c0.179-0.31,0.576-0.417,0.886-0.238c0.31,0.179,0.417,0.576,0.238,0.886l-2.248,3.895C26.182,53.337,25.963,53.453,25.739,53.453z&#9;&#9;&#9;"/>
                        <linearGradient id="SVGID_15_4_" gradientUnits="userSpaceOnUse" x1="13.6523" y1="-0.0376" x2="13.6523" y2="72.004">
                          <stop offset="0" stop-color="var(--color-stop-1)"/>
                          <stop offset="1" stop-color="var(--color-stop-2)"/>
                        </linearGradient>
                        <path fill="url(#SVGID_15_4_)" d="M5.222,54.692l0.408-1.226c1.771-5.313,5.382-9.841,10.17-12.753&#9;&#9;&#9;c1.591-0.963,3.281-1.738,5.025-2.305c0.34-0.111,0.707,0.076,0.818,0.416c0.111,0.341-0.075,0.707-0.416,0.818&#9;&#9;&#9;c-1.649,0.536-3.248,1.27-4.753,2.181c-4.168,2.535-7.394,6.368-9.185,10.883c1.798-0.42,3.491-0.469,5.138-0.517&#9;&#9;&#9;c2.885-0.084,5.609-0.163,8.641-2.231c0.296-0.202,0.7-0.125,0.902,0.17c0.202,0.296,0.126,0.7-0.17,0.902&#9;&#9;&#9;c-3.346,2.283-6.391,2.371-9.335,2.457c-1.93,0.056-3.925,0.114-6.015,0.802L5.222,54.692z"/>
                        <linearGradient id="SVGID_16_4_" gradientUnits="userSpaceOnUse" x1="20.6426" y1="-0.0376" x2="20.6426" y2="72.004">
                          <stop offset="0" stop-color="var(--color-stop-1)"/>
                          <stop offset="1" stop-color="var(--color-stop-2)"/>
                        </linearGradient>
                        <path fill="url(#SVGID_16_4_)" d="M18.712,46.072c-0.224,0-0.442-0.116-0.563-0.325c-0.179-0.31-0.073-0.707,0.238-0.886l3.863-2.23&#9;&#9;&#9;c0.311-0.179,0.707-0.073,0.886,0.238c0.179,0.31,0.073,0.707-0.238,0.886l-3.863,2.23C18.933,46.045,18.822,46.072,18.712,46.072z&#9;&#9;&#9;"/>
                        <linearGradient id="SVGID_17_4_" gradientUnits="userSpaceOnUse" x1="11.1232" y1="-0.0376" x2="11.1232" y2="72.004">
                          <stop offset="0" stop-color="var(--color-stop-1)"/>
                          <stop offset="1" stop-color="var(--color-stop-2)"/>
                        </linearGradient>
                        <path fill="url(#SVGID_17_4_)" d="M15.094,41.959c-3.427,0-5.857-1.31-8.216-2.58c-1.704-0.918-3.466-1.867-5.614-2.315L0,36.801&#9;&#9;&#9;l0.966-0.857c4.188-3.716,9.579-5.833,15.18-5.961c1.875-0.042,3.756,0.138,5.589,0.535c0.35,0.076,0.573,0.421,0.497,0.772&#9;&#9;&#9;c-0.076,0.35-0.422,0.573-0.771,0.497c-1.734-0.376-3.511-0.546-5.285-0.506c-4.878,0.111-9.587,1.819-13.394,4.834&#9;&#9;&#9;c1.764,0.534,3.258,1.339,4.712,2.122c2.549,1.373,4.958,2.669,8.593,2.385c0.357-0.028,0.67,0.239,0.697,0.596&#9;&#9;&#9;c0.028,0.357-0.239,0.67-0.596,0.697C15.812,41.945,15.448,41.959,15.094,41.959z"/>
                        <linearGradient id="SVGID_18_4_" gradientUnits="userSpaceOnUse" x1="18.5331" y1="-0.0376" x2="18.5331" y2="72.004">
                          <stop offset="0" stop-color="var(--color-stop-1)"/>
                          <stop offset="1" stop-color="var(--color-stop-2)"/>
                        </linearGradient>
                        <path fill="url(#SVGID_18_4_)" d="M20.752,36.166h-4.437c-0.358,0-0.649-0.291-0.649-0.649s0.29-0.649,0.649-0.649h4.437&#9;&#9;&#9;c0.358,0,0.649,0.291,0.649,0.649S21.11,36.166,20.752,36.166z"/>
                        <linearGradient id="SVGID_19_4_" gradientUnits="userSpaceOnUse" x1="13.2856" y1="-0.0376" x2="13.2856" y2="72.004">
                          <stop offset="0" stop-color="var(--color-stop-1)"/>
                          <stop offset="1" stop-color="var(--color-stop-2)"/>
                        </linearGradient>
                        <path fill="url(#SVGID_19_4_)" d="M16.161,31.282c-0.109,0-0.218-0.027-0.316-0.083c-3.628-1.763-5.22-4.344-6.76-6.84&#9;&#9;&#9;c-1.013-1.641-2.06-3.339-3.702-4.804l-0.964-0.86l1.266-0.259c5.486-1.123,11.215-0.262,16.128,2.427&#9;&#9;&#9;c0.314,0.172,0.43,0.566,0.258,0.881c-0.172,0.314-0.566,0.43-0.881,0.258c-4.279-2.342-9.212-3.217-14.017-2.51&#9;&#9;&#9;c1.263,1.346,2.151,2.786,3.016,4.187c1.513,2.453,2.943,4.77,6.253,6.369l0.093,0.045l0.074,0.071&#9;&#9;&#9;c0.259,0.248,0.269,0.66,0.021,0.919C16.503,31.215,16.332,31.282,16.161,31.282z"/>
                        <linearGradient id="SVGID_20_4_" gradientUnits="userSpaceOnUse" x1="23.7312" y1="-0.0376" x2="23.7312" y2="72.004">
                          <stop offset="0" stop-color="var(--color-stop-1)"/>
                          <stop offset="1" stop-color="var(--color-stop-2)"/>
                        </linearGradient>
                        <path fill="url(#SVGID_20_4_)" d="M25.955,25.251c-0.156,0-0.312-0.056-0.437-0.169c-1.3-1.183-2.714-2.191-4.324-3.08&#9;&#9;&#9;c-0.314-0.173-0.427-0.568-0.254-0.882c0.174-0.313,0.568-0.427,0.882-0.254c1.7,0.939,3.194,2.004,4.57,3.256&#9;&#9;&#9;c0.265,0.241,0.284,0.652,0.043,0.917C26.307,25.18,26.131,25.251,25.955,25.251z"/>
                        <linearGradient id="SVGID_21_4_" gradientUnits="userSpaceOnUse" x1="21.1413" y1="-0.0376" x2="21.1413" y2="72.004">
                          <stop offset="0" stop-color="var(--color-stop-1)"/>
                          <stop offset="1" stop-color="var(--color-stop-2)"/>
                        </linearGradient>
                        <path fill="url(#SVGID_21_4_)" d="M23.089,28.64c-0.11,0-0.222-0.028-0.324-0.087l-3.896-2.25c-0.31-0.179-0.417-0.576-0.237-0.886&#9;&#9;&#9;c0.179-0.31,0.576-0.417,0.886-0.238l3.896,2.25c0.31,0.179,0.417,0.576,0.237,0.886C23.531,28.523,23.313,28.64,23.089,28.64z"/>
                        <linearGradient id="SVGID_22_4_" gradientUnits="userSpaceOnUse" x1="25.468" y1="-0.0376" x2="25.468" y2="72.004">
                          <stop offset="0" stop-color="var(--color-stop-1)"/>
                          <stop offset="1" stop-color="var(--color-stop-2)"/>
                        </linearGradient>
                        <path fill="url(#SVGID_22_4_)" d="M21.503,22.081c-0.208,0-0.412-0.1-0.538-0.285c-2.283-3.369-2.369-6.403-2.453-9.338&#9;&#9;&#9;c-0.055-1.924-0.112-3.914-0.801-6.007l-0.404-1.227l1.226,0.409c7.139,2.38,12.771,8.073,15.067,15.23&#9;&#9;&#9;c0.109,0.341-0.078,0.706-0.42,0.816c-0.341,0.11-0.706-0.078-0.816-0.42C30.32,14.89,25.483,9.748,19.293,7.29&#9;&#9;&#9;c0.421,1.798,0.469,3.487,0.516,5.13c0.082,2.876,0.16,5.592,2.23,8.648c0.201,0.297,0.124,0.7-0.173,0.901&#9;&#9;&#9;C21.755,22.045,21.628,22.081,21.503,22.081z"/>
                        <linearGradient id="SVGID_23_4_" gradientUnits="userSpaceOnUse" x1="27.694" y1="-0.0376" x2="27.694" y2="72.004">
                          <stop offset="0" stop-color="var(--color-stop-1)"/>
                          <stop offset="1" stop-color="var(--color-stop-2)"/>
                        </linearGradient>
                        <path fill="url(#SVGID_23_4_)" d="M28.814,23.237c-0.224,0-0.442-0.116-0.562-0.325l-2.238-3.875&#9;&#9;&#9;c-0.179-0.31-0.073-0.707,0.237-0.886c0.311-0.179,0.707-0.073,0.886,0.237l2.238,3.875c0.179,0.31,0.073,0.707-0.237,0.886&#9;&#9;&#9;C29.035,23.209,28.924,23.237,28.814,23.237z"/>
                        <linearGradient id="SVGID_24_4_" gradientUnits="userSpaceOnUse" x1="36.0276" y1="-0.0376" x2="36.0276" y2="72.004">
                          <stop offset="0" stop-color="var(--color-stop-1)"/>
                          <stop offset="1" stop-color="var(--color-stop-2)"/>
                        </linearGradient>
                        <path fill="url(#SVGID_24_4_)" d="M40.848,22.247c-0.046,0-0.092-0.005-0.138-0.015c-0.35-0.076-0.572-0.422-0.496-0.772&#9;&#9;&#9;c0.376-1.728,0.55-3.553,0.504-5.276l-0.001-0.021l0.001-0.021c0.003-0.072,0.191-7.011-4.833-13.361&#9;&#9;&#9;c-0.533,1.753-1.341,3.258-2.126,4.722c-1.385,2.582-2.693,5.02-2.381,8.58c0.031,0.357-0.233,0.672-0.59,0.703&#9;&#9;&#9;c-0.354,0.031-0.672-0.233-0.703-0.59c-0.346-3.945,1.116-6.671,2.53-9.306c0.923-1.721,1.877-3.5,2.32-5.626L35.199,0l0.857,0.966&#9;&#9;&#9;c6.101,6.877,5.977,14.635,5.959,15.203c0.047,1.82-0.138,3.744-0.534,5.566C41.415,22.04,41.147,22.247,40.848,22.247z"/>
                        <linearGradient id="SVGID_25_4_" gradientUnits="userSpaceOnUse" x1="36.4821" y1="-0.0376" x2="36.4821" y2="72.004">
                          <stop offset="0" stop-color="var(--color-stop-1)"/>
                          <stop offset="1" stop-color="var(--color-stop-2)"/>
                        </linearGradient>
                        <path fill="url(#SVGID_25_4_)" d="M36.482,21.442c-0.358,0-0.649-0.291-0.649-0.649v-4.478c0-0.358,0.29-0.649,0.649-0.649&#9;&#9;&#9;c0.358,0,0.649,0.291,0.649,0.649v4.478C37.131,21.152,36.84,21.442,36.482,21.442z"/>
                        <linearGradient id="SVGID_26_4_" gradientUnits="userSpaceOnUse" x1="35.9645" y1="-0.0376" x2="35.9645" y2="72.004">
                          <stop offset="0" stop-color="var(--color-stop-1)"/>
                          <stop offset="1" stop-color="var(--color-stop-2)"/>
                        </linearGradient>
                        <path fill="url(#SVGID_26_4_)" d="M35.97,51.839c-4.555,0-8.876-1.957-11.857-5.369c-0.821-0.928-1.531-1.926-2.106-2.962&#9;&#9;&#9;c-1.374-2.472-2.032-5.246-1.903-8.022c0.244-5.592,3.462-10.753,8.397-13.467c2.279-1.253,4.75-1.889,7.345-1.889&#9;&#9;&#9;c1.321,0,2.665,0.168,3.996,0.5c0.404,0.1,0.813,0.218,1.213,0.353c1.144,0.382,2.253,0.906,3.297,1.556&#9;&#9;&#9;c0.951,0.589,1.846,1.286,2.658,2.071c0.308,0.297,0.603,0.607,0.876,0.919c0.807,0.914,1.508,1.921,2.08,2.989&#9;&#9;&#9;c1.312,2.439,1.958,5.201,1.868,7.986c-0.087,2.788-0.908,5.502-2.375,7.849C46.551,49.04,41.508,51.839,35.97,51.839z&#9;&#9;&#9;M35.845,21.428c-2.373,0-4.634,0.582-6.72,1.728c-4.472,2.46-7.504,7.323-7.726,12.389c-0.118,2.537,0.484,5.072,1.741,7.333&#9;&#9;&#9;c0.53,0.955,1.185,1.875,1.946,2.735c2.737,3.133,6.702,4.928,10.882,4.928c5.086,0,9.717-2.57,12.387-6.875&#9;&#9;&#9;c1.346-2.154,2.099-4.645,2.179-7.204c0.082-2.558-0.511-5.093-1.715-7.331c-0.525-0.98-1.169-1.904-1.912-2.746&#9;&#9;&#9;c-0.251-0.287-0.52-0.569-0.802-0.842c-0.746-0.721-1.567-1.361-2.441-1.902c-0.959-0.598-1.976-1.078-3.024-1.428&#9;&#9;&#9;c-0.367-0.123-0.742-0.232-1.114-0.324C38.298,21.583,37.06,21.428,35.845,21.428z"/>
                        <linearGradient id="SVGID_27_4_" gradientUnits="userSpaceOnUse" x1="30.0561" y1="-0.0376" x2="30.0561" y2="72.004">
                          <stop offset="0" stop-color="var(--color-stop-1)"/>
                          <stop offset="1" stop-color="var(--color-stop-2)"/>
                        </linearGradient>
                        <path fill="url(#SVGID_27_4_)" d="M30.058,35.064c-1.669,0-3.359-1.145-3.359-3.335c0-1.851,1.506-3.357,3.357-3.357&#9;&#9;&#9;c1.851,0,3.357,1.506,3.357,3.357C33.413,33.918,31.726,35.064,30.058,35.064z M30.056,29.67c-1.136,0-2.06,0.924-2.06,2.059&#9;&#9;&#9;c0,1.407,1.036,2.037,2.062,2.037c1.024,0,2.058-0.63,2.058-2.037C32.116,30.594,31.192,29.67,30.056,29.67z"/>
                        <linearGradient id="SVGID_28_4_" gradientUnits="userSpaceOnUse" x1="40.6649" y1="-0.0376" x2="40.6649" y2="72.004">
                          <stop offset="0" stop-color="var(--color-stop-1)"/>
                          <stop offset="1" stop-color="var(--color-stop-2)"/>
                        </linearGradient>
                        <path fill="url(#SVGID_28_4_)" d="M40.665,33.653c-1.851,0-3.357-1.506-3.357-3.357c0-2.189,1.689-3.334,3.358-3.334&#9;&#9;&#9;c1.668,0,3.356,1.145,3.356,3.334C44.022,32.147,42.516,33.653,40.665,33.653z M40.666,28.259c-1.026,0-2.061,0.63-2.061,2.037&#9;&#9;&#9;c0,1.136,0.924,2.06,2.06,2.06c1.136,0,2.06-0.924,2.06-2.06C42.725,28.889,41.691,28.259,40.666,28.259z"/>
                        <linearGradient id="SVGID_29_4_" gradientUnits="userSpaceOnUse" x1="35.4731" y1="-0.0376" x2="35.4731" y2="72.004">
                          <stop offset="0" stop-color="var(--color-stop-1)"/>
                          <stop offset="1" stop-color="var(--color-stop-2)"/>
                        </linearGradient>
                        <path fill="url(#SVGID_29_4_)" d="M35.473,43.973c-1.851,0-3.357-1.506-3.357-3.357c0-1.851,1.506-3.357,3.357-3.357&#9;&#9;&#9;c1.851,0,3.357,1.506,3.357,3.357C38.83,42.467,37.324,43.973,35.473,43.973z M35.473,38.556c-1.136,0-2.06,0.924-2.06,2.059&#9;&#9;&#9;c0,1.136,0.924,2.06,2.06,2.06c1.136,0,2.06-0.924,2.06-2.06C37.533,39.48,36.609,38.556,35.473,38.556z"/>
                      </g>
                    </svg>