<svg xmlns="http://www.w3.org/2000/svg" class="svg-icon" x="0px" y="0px" width="54px" height="58px" viewBox="0 0 54 58" enable-background="new 0 0 54 58">
                        <g>
                          <g>
                            <path d="M22.866,18.9c-0.174,0-0.344-0.088-0.444-0.248c-0.153-0.247-0.079-0.573,0.166-0.727c0.584-0.369,1.083-0.854,1.482-1.44&#9;&#9;&#9;&#9;c0.759-1.122,1.04-2.476,0.792-3.812c-0.249-1.338-0.998-2.496-2.11-3.262c-1.112-0.766-2.454-1.05-3.777-0.8&#9;&#9;&#9;&#9;c-0.927,0.176-1.782,0.608-2.472,1.249c-0.212,0.197-0.543,0.184-0.739-0.031c-0.196-0.214-0.182-0.548,0.03-0.746&#9;&#9;&#9;&#9;c0.834-0.775,1.867-1.298,2.987-1.51c1.598-0.303,3.217,0.04,4.56,0.965c1.343,0.925,2.248,2.324,2.548,3.939&#9;&#9;&#9;&#9;c0.3,1.612-0.04,3.247-0.956,4.603c-0.481,0.708-1.083,1.293-1.79,1.739C23.056,18.874,22.96,18.9,22.866,18.9z"/>
                            <path d="M25.375,13.103c-0.247,0-0.466-0.177-0.513-0.43c-0.053-0.286,0.133-0.562,0.417-0.616l2.453-0.465&#9;&#9;&#9;&#9;c0.282-0.054,0.557,0.135,0.61,0.421c0.053,0.286-0.133,0.562-0.417,0.616l-2.453,0.465C25.439,13.1,25.407,13.103,25.375,13.103z&#9;&#9;&#9;&#9;"/>
                            <path d="M26.561,18.732c-0.102,0-0.204-0.03-0.295-0.092l-2.061-1.422c-0.238-0.164-0.299-0.493-0.136-0.733&#9;&#9;&#9;&#9;c0.163-0.241,0.488-0.302,0.727-0.138l2.061,1.422c0.238,0.164,0.3,0.493,0.136,0.733C26.891,18.652,26.728,18.732,26.561,18.732z&#9;&#9;&#9;&#9;"/>
                            <path d="M18.877,8.62c-0.247,0-0.466-0.177-0.513-0.43l-0.461-2.476c-0.053-0.286,0.133-0.562,0.417-0.616&#9;&#9;&#9;&#9;c0.284-0.054,0.557,0.135,0.61,0.421l0.461,2.476c0.053,0.286-0.133,0.562-0.417,0.616C18.942,8.617,18.909,8.62,18.877,8.62z"/>
                            <path d="M23.046,9.503c-0.102,0-0.204-0.03-0.294-0.092c-0.238-0.164-0.3-0.493-0.137-0.733l1.409-2.08&#9;&#9;&#9;&#9;c0.163-0.241,0.488-0.302,0.726-0.138c0.238,0.164,0.3,0.493,0.137,0.733l-1.409,2.08C23.377,9.423,23.213,9.503,23.046,9.503z"/>
                            <path d="M19.448,24.133H4.217C1.892,24.133,0,22.223,0,19.876c0-2.229,1.706-4.062,3.868-4.239&#9;&#9;&#9;&#9;c-0.254-2.059,0.328-4.124,1.637-5.752c1.443-1.793,3.582-2.821,5.87-2.821c4.171,0,7.564,3.425,7.564,7.634&#9;&#9;&#9;&#9;c0,0.304-0.018,0.608-0.054,0.911c0.19-0.026,0.381-0.04,0.572-0.04c2.333,0,4.232,1.921,4.232,4.282&#9;&#9;&#9;&#9;C23.689,22.212,21.786,24.133,19.448,24.133z M4.211,16.678c-1.745,0-3.165,1.434-3.165,3.198c0,1.765,1.423,3.201,3.172,3.201&#9;&#9;&#9;&#9;h15.23c1.762,0,3.195-1.447,3.195-3.225c0-1.779-1.429-3.226-3.186-3.226c-0.355,0-0.709,0.061-1.053,0.181l-0.894,0.312&#9;&#9;&#9;&#9;l0.213-0.93c0.113-0.491,0.17-0.992,0.17-1.49c0-3.628-2.924-6.579-6.518-6.579c-1.972,0-3.815,0.886-5.059,2.431&#9;&#9;&#9;&#9;c-1.244,1.546-1.726,3.552-1.321,5.502l0.142,0.684l-0.691-0.05C4.367,16.681,4.289,16.678,4.211,16.678z"/>
                          </g>
                          <path d="M10.458,58c-0.17,0-0.337-0.084-0.437-0.238c-0.159-0.243-0.092-0.571,0.149-0.731l42.58-28.303&#9;&#9;&#9;c0.241-0.16,0.565-0.093,0.724,0.151c0.159,0.243,0.092,0.571-0.149,0.731l-42.58,28.303C10.656,57.972,10.556,58,10.458,58z"/>
                          <path d="M24.021,58c-0.17,0-0.337-0.084-0.437-0.238c-0.159-0.243-0.092-0.571,0.149-0.731l29.016-19.288&#9;&#9;&#9;c0.241-0.16,0.565-0.093,0.724,0.15c0.159,0.243,0.092,0.571-0.149,0.731L24.308,57.913C24.22,57.972,24.12,58,24.021,58z"/>
                          <path d="M37.582,58c-0.17,0-0.337-0.084-0.437-0.238c-0.159-0.243-0.092-0.571,0.149-0.731l15.455-10.274&#9;&#9;&#9;c0.241-0.16,0.565-0.093,0.724,0.15c0.159,0.243,0.092,0.571-0.149,0.731L37.869,57.913C37.78,57.972,37.68,58,37.582,58z"/>
                          <path d="M32.616,43.271c-0.052,0-0.104-0.008-0.157-0.024L1.165,33.346c-0.276-0.087-0.429-0.383-0.342-0.661&#9;&#9;&#9;c0.086-0.278,0.379-0.433,0.655-0.346l31.295,9.901c0.276,0.087,0.429,0.383,0.342,0.661&#9;&#9;&#9;C33.045,43.127,32.839,43.271,32.616,43.271z"/>
                          <path d="M24.575,48.615c-0.052,0-0.104-0.008-0.157-0.024L3.62,42.011c-0.276-0.087-0.429-0.383-0.342-0.661&#9;&#9;&#9;c0.086-0.278,0.38-0.433,0.655-0.346l20.799,6.58c0.275,0.087,0.429,0.383,0.342,0.661C25.004,48.471,24.798,48.615,24.575,48.615z&#9;&#9;&#9;"/>
                          <path d="M16.531,53.962c-0.052,0-0.104-0.008-0.157-0.024l-10.3-3.26c-0.276-0.087-0.429-0.383-0.342-0.661&#9;&#9;&#9;c0.086-0.278,0.38-0.433,0.655-0.346l10.3,3.26c0.276,0.087,0.429,0.383,0.342,0.661C16.96,53.818,16.754,53.962,16.531,53.962z"/>
                          <g>
                            <path d="M35.845,32.694c-0.91,0-1.783-0.343-2.456-0.967c-2.237-2.08-4.904-5.171-4.904-8.092c0-4.5,6.61-17.98,6.891-18.552&#9;&#9;&#9;&#9;l0.468-0.951l0.468,0.951c0.027,0.054,2.702,5.502,4.692,10.616l0.036,0.093v0.1c0,0.291-0.234,0.529-0.523,0.529&#9;&#9;&#9;&#9;c-0.233,0-0.431-0.153-0.498-0.366c-1.474-3.784-3.323-7.748-4.175-9.532c-1.535,3.217-6.314,13.523-6.314,17.112&#9;&#9;&#9;&#9;c0,2.672,2.86,5.73,4.565,7.315c0.479,0.444,1.1,0.688,1.749,0.688c0.648,0,1.269-0.244,1.747-0.686&#9;&#9;&#9;&#9;c1.64-1.524,3.73-3.811,4.371-6.044c0.08-0.28,0.37-0.441,0.648-0.36c0.277,0.081,0.437,0.374,0.357,0.654&#9;&#9;&#9;&#9;c-0.708,2.467-2.93,4.911-4.668,6.527C37.627,32.352,36.756,32.694,35.845,32.694z"/>
                            <path d="M35.845,41.126c-0.289,0-0.523-0.236-0.523-0.528v-8.431c0-0.291,0.234-0.528,0.523-0.528s0.523,0.236,0.523,0.528v8.431&#9;&#9;&#9;&#9;C36.368,40.889,36.134,41.126,35.845,41.126z"/>
                            <path d="M38.018,24.571c-0.289,0-0.523-0.236-0.523-0.528v-2.235c0-0.291,0.234-0.528,0.523-0.528&#9;&#9;&#9;&#9;c0.289,0,0.523,0.236,0.523,0.528v2.235C38.541,24.334,38.307,24.571,38.018,24.571z"/>
                            <path d="M34.648,24.571c-0.289,0-0.523-0.236-0.523-0.528v-2.235c0-0.291,0.234-0.528,0.523-0.528&#9;&#9;&#9;&#9;c0.289,0,0.523,0.236,0.523,0.528v2.235C35.171,24.334,34.937,24.571,34.648,24.571z"/>
                            <path d="M35.419,17.185c-0.289,0-0.523-0.236-0.523-0.528v-2.235c0-0.291,0.234-0.528,0.523-0.528&#9;&#9;&#9;&#9;c0.289,0,0.523,0.236,0.523,0.528v2.235C35.941,16.948,35.707,17.185,35.419,17.185z"/>
                          </g>
                          <g>
                            <path d="M46.643,28.563c-0.911,0-1.784-0.344-2.457-0.968c-2.237-2.074-4.903-5.162-4.903-8.09c0-4.5,6.609-17.982,6.89-18.553&#9;&#9;&#9;&#9;L46.642,0l0.468,0.951C47.391,1.523,54,15.005,54,19.505c0,2.929-2.668,6.018-4.906,8.093&#9;&#9;&#9;&#9;C48.423,28.22,47.553,28.563,46.643,28.563z M46.642,2.392c-1.535,3.218-6.313,13.524-6.313,17.113&#9;&#9;&#9;&#9;c0,2.679,2.86,5.732,4.565,7.313c0.479,0.445,1.101,0.69,1.749,0.69c0.647,0,1.266-0.244,1.744-0.687&#9;&#9;&#9;&#9;c1.706-1.582,4.567-4.636,4.567-7.316C52.954,15.915,48.177,5.61,46.642,2.392z"/>
                            <path d="M46.642,33.948c-0.289,0-0.523-0.236-0.523-0.528v-5.385c0-0.291,0.234-0.528,0.523-0.528&#9;&#9;&#9;&#9;c0.289,0,0.523,0.236,0.523,0.528v5.385C47.165,33.711,46.931,33.948,46.642,33.948z"/>
                            <path d="M48.815,20.44c-0.289,0-0.523-0.236-0.523-0.528v-2.235c0-0.291,0.234-0.528,0.523-0.528c0.289,0,0.523,0.236,0.523,0.528&#9;&#9;&#9;&#9;v2.235C49.338,20.204,49.104,20.44,48.815,20.44z"/>
                            <path d="M45.445,20.44c-0.289,0-0.523-0.236-0.523-0.528v-2.235c0-0.291,0.234-0.528,0.523-0.528c0.289,0,0.523,0.236,0.523,0.528&#9;&#9;&#9;&#9;v2.235C45.968,20.204,45.734,20.44,45.445,20.44z"/>
                            <path d="M46.215,13.054c-0.289,0-0.523-0.236-0.523-0.528v-2.235c0-0.291,0.234-0.528,0.523-0.528&#9;&#9;&#9;&#9;c0.289,0,0.523,0.236,0.523,0.528v2.235C46.738,12.818,46.504,13.054,46.215,13.054z"/>
                          </g>
                        </g>
                      </svg>