<svg xmlns="http://www.w3.org/2000/svg" class="svg-icon" x="0px" y="0px" width="53px" height="50px" viewBox="0 0 53 50" enable-background="new 0 0 53 50">
                        <g>
                          <path d="M38.022,50H14.978V31.77h23.044V50z M15.878,49.081h21.243V32.689H15.878V49.081z"/>
                          <path d="M26.5,50c-0.152,0-0.294-0.078-0.377-0.208L15.052,32.481c-0.136-0.213-0.077-0.497,0.131-0.636&#9;&#9;&#9;c0.208-0.139,0.487-0.079,0.623,0.133L26.5,48.7l10.695-16.722c0.136-0.212,0.415-0.272,0.623-0.133&#9;&#9;&#9;c0.208,0.139,0.267,0.424,0.131,0.636L26.877,49.792C26.794,49.922,26.652,50,26.5,50z"/>
                          <path d="M37.572,50c-0.147,0-0.291-0.073-0.377-0.208L26.5,33.07L15.805,49.792c-0.136,0.212-0.415,0.272-0.623,0.133&#9;&#9;&#9;c-0.208-0.139-0.267-0.424-0.131-0.636l11.072-17.311c0.083-0.13,0.225-0.208,0.377-0.208s0.294,0.078,0.377,0.208l11.072,17.311&#9;&#9;&#9;c0.136,0.213,0.077,0.497-0.131,0.636C37.742,49.976,37.657,50,37.572,50z"/>
                          <path d="M26.5,50c-0.249,0-0.45-0.206-0.45-0.46V32.229c0-0.254,0.201-0.46,0.45-0.46s0.45,0.206,0.45,0.46V49.54&#9;&#9;&#9;C26.95,49.794,26.749,50,26.5,50z"/>
                          <path d="M30.211,20.307h-7.421V14.82h7.421V20.307z M23.689,19.388h5.621v-3.649h-5.621V19.388z"/>
                          <path d="M15.879,50H4.973v-27.28c0-0.254,0.201-0.46,0.45-0.46s0.45,0.206,0.45,0.46v26.361h9.105V32.23&#9;&#9;&#9;c0-0.254,0.201-0.46,0.45-0.46c0.249,0,0.45,0.206,0.45,0.46V50z"/>
                          <path d="M48.027,50H37.122V32.23c0-0.254,0.201-0.46,0.45-0.46c0.249,0,0.45,0.206,0.45,0.46v16.851h9.105V22.719&#9;&#9;&#9;c0-0.254,0.201-0.46,0.45-0.46c0.249,0,0.45,0.206,0.45,0.46V50z"/>
                          <path d="M49.903,27.907l-9.427-17.204L26.5,4.003l-13.977,6.699L3.097,27.907L0,26.137l9.984-18.22L26.5,0l16.517,7.916L53,26.137&#9;&#9;&#9;L49.903,27.907z M26.5,2.988l14.621,7.008l9.128,16.66l1.526-0.872l-9.402-17.16L26.5,1.016L10.628,8.623l-9.403,17.16l1.526,0.872&#9;&#9;&#9;l9.128-16.66L26.5,2.988z"/>
                          <path d="M26.5,13.665c-0.249,0-0.45-0.206-0.45-0.46V6.264c0-0.254,0.201-0.46,0.45-0.46s0.45,0.206,0.45,0.46v6.942&#9;&#9;&#9;C26.95,13.46,26.749,13.665,26.5,13.665z"/>
                          <path d="M26.5,30.165c-0.249,0-0.45-0.206-0.45-0.46V22.92c0-0.254,0.201-0.46,0.45-0.46s0.45,0.206,0.45,0.46v6.785&#9;&#9;&#9;C26.95,29.959,26.749,30.165,26.5,30.165z"/>
                          <path d="M20.813,30.165c-0.249,0-0.45-0.206-0.45-0.46V9.419c0-0.254,0.201-0.46,0.45-0.46c0.249,0,0.45,0.206,0.45,0.46v20.286&#9;&#9;&#9;C21.263,29.959,21.062,30.165,20.813,30.165z"/>
                          <path d="M32.187,30.165c-0.249,0-0.45-0.206-0.45-0.46V9.419c0-0.254,0.201-0.46,0.45-0.46c0.249,0,0.45,0.206,0.45,0.46v20.286&#9;&#9;&#9;C32.637,29.959,32.435,30.165,32.187,30.165z"/>
                          <path d="M15.87,30.165c-0.249,0-0.45-0.206-0.45-0.46V12.103c0-0.254,0.201-0.46,0.45-0.46c0.249,0,0.45,0.206,0.45,0.46v17.602&#9;&#9;&#9;C16.32,29.959,16.118,30.165,15.87,30.165z"/>
                          <path d="M37.13,30.165c-0.249,0-0.45-0.206-0.45-0.46V12.103c0-0.254,0.201-0.46,0.45-0.46c0.249,0,0.45,0.206,0.45,0.46v17.602&#9;&#9;&#9;C37.58,29.959,37.379,30.165,37.13,30.165z"/>
                          <path d="M10.927,47.836c-0.249,0-0.45-0.206-0.45-0.46V17.563c0-0.254,0.201-0.46,0.45-0.46c0.249,0,0.45,0.206,0.45,0.46v29.813&#9;&#9;&#9;C11.377,47.63,11.175,47.836,10.927,47.836z"/>
                          <path d="M42.074,47.836c-0.249,0-0.45-0.206-0.45-0.46V17.563c0-0.254,0.201-0.46,0.45-0.46s0.45,0.206,0.45,0.46v29.813&#9;&#9;&#9;C42.524,47.63,42.322,47.836,42.074,47.836z"/>
                        </g>
                      </svg>