<svg xmlns="http://www.w3.org/2000/svg" class="svg-icon" x="0px" y="0px" width="54px" height="52px" viewBox="0 0 54 52" enable-background="new 0 0 54 52">
                        <g>
                          <g>
                            <path d="M7.924,38.012H7.008c0-2.282-0.391-3.96-2.392-5.78c-0.108-0.098-0.33-0.269-0.586-0.467&#9;&#9;&#9;&#9;c-1.053-0.811-3.014-2.322-3.967-4.015L0,27.638v-7.517l0.853,1.516c0.858,1.525,2.72,2.959,3.721,3.73&#9;&#9;&#9;&#9;c0.295,0.227,0.508,0.392,0.644,0.515c1.176,1.07,1.861,2.114,2.248,3.223c0.387-1.109,1.072-2.153,2.248-3.223&#9;&#9;&#9;&#9;c0.136-0.123,0.349-0.287,0.644-0.514c1.001-0.771,2.864-2.205,3.722-3.731l0.853-1.516v7.517l-0.063,0.112&#9;&#9;&#9;&#9;c-0.953,1.694-2.914,3.204-3.968,4.016c-0.257,0.198-0.478,0.368-0.586,0.466C8.315,34.053,7.924,35.73,7.924,38.012z&#9;&#9;&#9;&#9;M0.916,27.375c0.883,1.484,2.681,2.868,3.658,3.621c0.295,0.228,0.509,0.392,0.645,0.516c1.176,1.07,1.861,2.114,2.248,3.223&#9;&#9;&#9;&#9;c0.387-1.109,1.072-2.153,2.248-3.223c0.136-0.123,0.349-0.288,0.644-0.515c0.977-0.752,2.775-2.137,3.658-3.621v-4.049&#9;&#9;&#9;&#9;c-1.006,1.188-2.32,2.2-3.116,2.813c-0.256,0.197-0.478,0.368-0.585,0.466c-2.001,1.82-2.392,3.498-2.392,5.78H7.008&#9;&#9;&#9;&#9;c0-2.282-0.391-3.959-2.392-5.78c-0.108-0.098-0.329-0.269-0.586-0.466c-0.796-0.613-2.109-1.624-3.115-2.812V27.375z"/>
                            <path d="M4.05,26.037c-0.197,0-0.38-0.134-0.439-0.342c-0.617-2.167-0.718-4.141,0.794-6.734c0.093-0.16,0.248-0.382,0.462-0.688&#9;&#9;&#9;&#9;c0.604-0.867,1.615-2.317,2.174-3.763l0.425-1.098l0.425,1.098c0.559,1.446,1.57,2.896,2.174,3.763&#9;&#9;&#9;&#9;c0.214,0.307,0.368,0.528,0.461,0.687c1.512,2.593,1.411,4.568,0.795,6.735c-0.072,0.253-0.327,0.398-0.57,0.322&#9;&#9;&#9;&#9;c-0.242-0.075-0.38-0.342-0.308-0.595c0.563-1.977,0.642-3.664-0.698-5.963c-0.074-0.126-0.234-0.356-0.42-0.623&#9;&#9;&#9;&#9;c-0.499-0.715-1.263-1.813-1.859-3.011c-0.595,1.198-1.36,2.296-1.858,3.011c-0.186,0.267-0.347,0.497-0.421,0.624&#9;&#9;&#9;&#9;c-1.34,2.298-1.261,3.985-0.698,5.962c0.072,0.253-0.066,0.52-0.308,0.595C4.138,26.031,4.094,26.037,4.05,26.037z"/>
                            <path d="M9.456,27.268c-0.202,0-0.387-0.14-0.442-0.354c-0.173-0.669-0.467-1.352-0.897-2.09&#9;&#9;&#9;&#9;c-0.075-0.128-0.238-0.362-0.427-0.634c-0.069-0.099-0.144-0.207-0.224-0.323c-0.08,0.116-0.156,0.225-0.224,0.324&#9;&#9;&#9;&#9;c-0.189,0.272-0.352,0.506-0.427,0.634c-0.43,0.737-0.724,1.421-0.897,2.09C5.852,27.17,5.6,27.32,5.356,27.251&#9;&#9;&#9;&#9;c-0.244-0.069-0.388-0.332-0.322-0.587c0.196-0.758,0.523-1.522,0.999-2.338c0.094-0.161,0.251-0.386,0.468-0.699&#9;&#9;&#9;&#9;c0.175-0.252,0.374-0.538,0.589-0.861l0.376-0.564l0.376,0.564c0.215,0.323,0.414,0.608,0.589,0.86&#9;&#9;&#9;&#9;c0.217,0.312,0.375,0.538,0.469,0.699c0.476,0.816,0.803,1.58,0.999,2.338c0.066,0.255-0.078,0.518-0.322,0.587&#9;&#9;&#9;&#9;C9.536,27.263,9.496,27.268,9.456,27.268z"/>
                            <path d="M7.924,43.64H7.008c0-2.282-0.391-3.96-2.392-5.78c-0.108-0.098-0.33-0.269-0.586-0.467&#9;&#9;&#9;&#9;c-1.053-0.811-3.014-2.322-3.967-4.015L0,33.267v-7.517l0.853,1.516c0.858,1.525,2.72,2.959,3.721,3.73&#9;&#9;&#9;&#9;c0.295,0.227,0.508,0.392,0.644,0.515c1.176,1.07,1.861,2.114,2.248,3.223c0.387-1.109,1.072-2.153,2.248-3.223&#9;&#9;&#9;&#9;c0.136-0.123,0.349-0.287,0.644-0.515c1.001-0.771,2.864-2.205,3.722-3.731l0.853-1.516v7.517l-0.063,0.112&#9;&#9;&#9;&#9;c-0.953,1.694-2.914,3.204-3.968,4.016c-0.257,0.198-0.478,0.368-0.586,0.466C8.315,39.681,7.924,41.358,7.924,43.64z&#9;&#9;&#9;&#9;M0.916,33.003c0.883,1.484,2.681,2.868,3.658,3.621c0.295,0.228,0.509,0.392,0.645,0.516c1.176,1.07,1.861,2.114,2.248,3.223&#9;&#9;&#9;&#9;c0.387-1.109,1.072-2.153,2.248-3.223c0.136-0.123,0.349-0.288,0.644-0.515c0.977-0.752,2.775-2.137,3.658-3.621v-4.049&#9;&#9;&#9;&#9;c-1.006,1.188-2.32,2.2-3.116,2.813c-0.256,0.197-0.478,0.368-0.585,0.466c-2.001,1.82-2.392,3.498-2.392,5.78H7.008&#9;&#9;&#9;&#9;c0-2.282-0.391-3.959-2.392-5.78c-0.108-0.098-0.329-0.269-0.586-0.466c-0.796-0.613-2.109-1.624-3.115-2.812V33.003z"/>
                            <path d="M7.924,49.269H7.008c0-2.282-0.391-3.96-2.392-5.78c-0.108-0.098-0.33-0.269-0.587-0.467&#9;&#9;&#9;&#9;c-0.52-0.4-1.231-0.948-1.944-1.604C0.76,40.198,0,38.439,0,36.592v-5.215l0.853,1.516c0.858,1.525,2.72,2.959,3.721,3.73&#9;&#9;&#9;&#9;c0.295,0.227,0.508,0.392,0.644,0.515c1.176,1.07,1.861,2.114,2.248,3.223c0.387-1.109,1.072-2.153,2.248-3.223&#9;&#9;&#9;&#9;c0.136-0.123,0.349-0.287,0.643-0.515c1.001-0.771,2.864-2.205,3.722-3.731l0.853-1.516v5.214c0,1.847-0.76,3.606-2.086,4.826&#9;&#9;&#9;&#9;c-0.713,0.656-1.425,1.204-1.945,1.605c-0.257,0.198-0.479,0.368-0.586,0.466C8.315,45.309,7.924,46.987,7.924,49.269z&#9;&#9;&#9;&#9;M0.916,34.582v2.01c0,1.572,0.647,3.069,1.775,4.107c0.683,0.629,1.376,1.162,1.882,1.552c0.296,0.228,0.509,0.392,0.645,0.516&#9;&#9;&#9;&#9;c1.176,1.07,1.861,2.114,2.248,3.223c0.387-1.109,1.072-2.153,2.248-3.223c0.136-0.124,0.349-0.288,0.644-0.515&#9;&#9;&#9;&#9;c0.506-0.39,1.199-0.924,1.883-1.552c1.128-1.038,1.775-2.535,1.775-4.107v-2.01c-1.006,1.188-2.32,2.2-3.116,2.813&#9;&#9;&#9;&#9;c-0.256,0.197-0.478,0.368-0.585,0.466c-2.001,1.82-2.392,3.498-2.392,5.78H7.008c0-2.282-0.391-3.96-2.392-5.78&#9;&#9;&#9;&#9;c-0.108-0.098-0.329-0.269-0.586-0.466C3.235,36.781,1.921,35.77,0.916,34.582z"/>
                            <path d="M0.458,22.358C0.205,22.358,0,22.144,0,21.88v-9.71c0-0.264,0.205-0.479,0.458-0.479c0.253,0,0.458,0.214,0.458,0.479&#9;&#9;&#9;&#9;v9.71C0.916,22.144,0.711,22.358,0.458,22.358z"/>
                            <path d="M7.466,15.168c-0.253,0-0.458-0.214-0.458-0.479V8.985c0-0.264,0.205-0.479,0.458-0.479c0.253,0,0.458,0.214,0.458,0.479&#9;&#9;&#9;&#9;v5.704C7.924,14.953,7.719,15.168,7.466,15.168z"/>
                            <path d="M14.475,22.358c-0.253,0-0.458-0.214-0.458-0.479v-9.71c0-0.264,0.205-0.479,0.458-0.479c0.253,0,0.458,0.214,0.458,0.479&#9;&#9;&#9;&#9;v9.71C14.933,22.144,14.728,22.358,14.475,22.358z"/>
                            <path d="M7.466,52c-0.253,0-0.458-0.214-0.458-0.479V31.347c0-0.264,0.205-0.479,0.458-0.479c0.253,0,0.458,0.214,0.458,0.479&#9;&#9;&#9;&#9;v20.175C7.924,51.786,7.719,52,7.466,52z"/>
                          </g>
                          <g>
                            <path d="M27.458,35.31h-0.916c0-2.766-0.475-4.8-2.902-7.008c-0.132-0.12-0.387-0.316-0.709-0.565&#9;&#9;&#9;&#9;c-1.259-0.97-3.602-2.774-4.736-4.79l-0.063-0.112v-8.643l0.853,1.516c1.039,1.847,3.284,3.576,4.49,4.505&#9;&#9;&#9;&#9;c0.339,0.261,0.607,0.467,0.767,0.613c1.489,1.355,2.317,2.677,2.758,4.093c0.441-1.416,1.268-2.738,2.758-4.093&#9;&#9;&#9;&#9;c0.16-0.146,0.428-0.352,0.767-0.613c1.206-0.929,3.452-2.658,4.49-4.505l0.853-1.516v8.643l-0.063,0.112&#9;&#9;&#9;&#9;c-1.134,2.016-3.477,3.82-4.736,4.79c-0.322,0.248-0.577,0.444-0.709,0.564C27.933,30.511,27.458,32.544,27.458,35.31z&#9;&#9;&#9;&#9;M19.048,22.573c1.064,1.805,3.245,3.484,4.427,4.395c0.339,0.261,0.607,0.468,0.767,0.613c1.489,1.355,2.317,2.677,2.758,4.093&#9;&#9;&#9;&#9;c0.441-1.416,1.268-2.738,2.758-4.093c0.16-0.146,0.428-0.352,0.767-0.613c1.182-0.91,3.363-2.59,4.427-4.395V17.43&#9;&#9;&#9;&#9;c-1.217,1.501-2.889,2.788-3.884,3.554c-0.322,0.248-0.577,0.444-0.709,0.564c-2.427,2.208-2.901,4.242-2.901,7.008h-0.916&#9;&#9;&#9;&#9;c0-2.766-0.475-4.799-2.902-7.008c-0.132-0.12-0.387-0.316-0.709-0.564c-0.995-0.766-2.666-2.053-3.884-3.554V22.573z"/>
                            <path d="M31.099,20.845c-0.043,0-0.087-0.006-0.131-0.02c-0.242-0.075-0.38-0.342-0.308-0.595&#9;&#9;&#9;&#9;c0.682-2.398,0.779-4.444-0.848-7.233c-0.09-0.154-0.275-0.419-0.509-0.755C28.684,11.354,27.721,9.972,27,8.476&#9;&#9;&#9;&#9;c-0.721,1.496-1.684,2.878-2.304,3.767c-0.234,0.335-0.418,0.6-0.509,0.755c-1.626,2.788-1.53,4.834-0.847,7.232&#9;&#9;&#9;&#9;c0.072,0.253-0.066,0.52-0.308,0.595c-0.242,0.075-0.497-0.069-0.569-0.322c-0.733-2.576-0.854-4.923,0.943-8.004&#9;&#9;&#9;&#9;c0.11-0.188,0.304-0.467,0.55-0.82c0.727-1.044,1.944-2.79,2.619-4.535L27,6.046l0.425,1.098c0.675,1.745,1.892,3.492,2.619,4.535&#9;&#9;&#9;&#9;c0.246,0.353,0.44,0.631,0.55,0.819c1.797,3.081,1.677,5.428,0.944,8.004C31.479,20.71,31.296,20.845,31.099,20.845z"/>
                            <path d="M29.388,22.322c-0.202,0-0.387-0.14-0.442-0.354c-0.21-0.811-0.566-1.639-1.086-2.532&#9;&#9;&#9;&#9;c-0.091-0.156-0.278-0.425-0.515-0.766c-0.104-0.149-0.22-0.316-0.345-0.497c-0.124,0.181-0.241,0.348-0.344,0.496&#9;&#9;&#9;&#9;c-0.237,0.341-0.425,0.61-0.516,0.767c-0.521,0.893-0.876,1.721-1.086,2.532c-0.066,0.255-0.317,0.406-0.562,0.337&#9;&#9;&#9;&#9;c-0.244-0.069-0.388-0.332-0.322-0.587c0.233-0.899,0.622-1.809,1.188-2.78c0.111-0.19,0.308-0.473,0.557-0.831&#9;&#9;&#9;&#9;c0.211-0.303,0.45-0.646,0.709-1.035L27,16.507l0.376,0.565c0.259,0.389,0.498,0.733,0.709,1.036&#9;&#9;&#9;&#9;c0.249,0.358,0.446,0.641,0.557,0.83c0.567,0.971,0.955,1.881,1.188,2.781c0.066,0.255-0.078,0.518-0.322,0.587&#9;&#9;&#9;&#9;C29.468,22.316,29.428,22.322,29.388,22.322z"/>
                            <path d="M27.458,42.064h-0.916c0-2.766-0.475-4.8-2.902-7.008c-0.132-0.12-0.387-0.316-0.709-0.565&#9;&#9;&#9;&#9;c-1.259-0.97-3.602-2.774-4.736-4.79l-0.063-0.112v-8.643l0.853,1.516c1.039,1.847,3.284,3.576,4.49,4.505&#9;&#9;&#9;&#9;c0.339,0.261,0.607,0.467,0.767,0.613c1.489,1.355,2.317,2.677,2.758,4.093c0.441-1.416,1.268-2.738,2.758-4.093&#9;&#9;&#9;&#9;c0.16-0.146,0.428-0.352,0.767-0.613c1.206-0.929,3.452-2.658,4.49-4.505l0.853-1.516v8.643l-0.063,0.112&#9;&#9;&#9;&#9;c-1.134,2.016-3.477,3.82-4.736,4.79c-0.322,0.248-0.577,0.444-0.709,0.565C27.933,37.265,27.458,39.298,27.458,42.064z&#9;&#9;&#9;&#9;M19.048,29.327c1.064,1.805,3.244,3.484,4.427,4.395c0.339,0.261,0.607,0.468,0.767,0.614c1.489,1.355,2.317,2.677,2.758,4.093&#9;&#9;&#9;&#9;c0.441-1.416,1.268-2.738,2.758-4.093c0.16-0.146,0.428-0.352,0.767-0.613c1.182-0.91,3.363-2.59,4.427-4.395v-5.143&#9;&#9;&#9;&#9;c-1.217,1.501-2.889,2.788-3.884,3.554c-0.322,0.248-0.577,0.444-0.709,0.564c-2.427,2.208-2.901,4.242-2.901,7.008h-0.916&#9;&#9;&#9;&#9;c0-2.766-0.475-4.799-2.902-7.008c-0.132-0.12-0.387-0.316-0.709-0.564c-0.995-0.766-2.666-2.053-3.884-3.554V29.327z"/>
                            <path d="M27.458,48.818h-0.916c0-2.766-0.475-4.8-2.902-7.008c-0.132-0.12-0.387-0.316-0.709-0.565&#9;&#9;&#9;&#9;c-0.622-0.479-1.474-1.135-2.327-1.92c-1.571-1.446-2.472-3.53-2.472-5.719v-5.906l0.853,1.516&#9;&#9;&#9;&#9;c1.039,1.847,3.284,3.576,4.49,4.505c0.339,0.261,0.607,0.467,0.767,0.613c1.489,1.355,2.317,2.677,2.758,4.093&#9;&#9;&#9;&#9;c0.441-1.416,1.268-2.738,2.758-4.093c0.16-0.146,0.428-0.352,0.767-0.613c1.206-0.929,3.452-2.658,4.49-4.505l0.853-1.516v5.906&#9;&#9;&#9;&#9;c0,2.189-0.901,4.273-2.472,5.719c-0.853,0.785-1.705,1.441-2.327,1.92c-0.323,0.248-0.577,0.445-0.709,0.565&#9;&#9;&#9;&#9;C27.933,44.018,27.458,46.052,27.458,48.818z M19.048,30.938v2.669c0,1.914,0.788,3.737,2.161,5&#9;&#9;&#9;&#9;c0.823,0.757,1.657,1.399,2.265,1.868c0.339,0.261,0.607,0.468,0.768,0.614c1.489,1.355,2.317,2.677,2.758,4.093&#9;&#9;&#9;&#9;c0.441-1.416,1.268-2.738,2.758-4.093c0.16-0.146,0.428-0.352,0.767-0.613c0.609-0.469,1.442-1.111,2.265-1.868&#9;&#9;&#9;&#9;c1.374-1.264,2.161-3.087,2.161-5v-2.669c-1.217,1.501-2.889,2.788-3.884,3.554c-0.322,0.248-0.577,0.444-0.709,0.564&#9;&#9;&#9;&#9;c-2.427,2.208-2.901,4.242-2.901,7.008h-0.916c0-2.766-0.475-4.799-2.902-7.008c-0.132-0.12-0.387-0.316-0.709-0.564&#9;&#9;&#9;&#9;C21.937,33.726,20.265,32.439,19.048,30.938z"/>
                            <path d="M18.59,16.43c-0.253,0-0.458-0.214-0.458-0.479V4.3c0-0.264,0.205-0.479,0.458-0.479c0.253,0,0.458,0.214,0.458,0.479&#9;&#9;&#9;&#9;v11.652C19.048,16.216,18.843,16.43,18.59,16.43z"/>
                            <path d="M27,7.801c-0.253,0-0.458-0.214-0.458-0.479V0.479C26.542,0.214,26.747,0,27,0s0.458,0.214,0.458,0.479v6.844&#9;&#9;&#9;&#9;C27.458,7.587,27.253,7.801,27,7.801z"/>
                            <path d="M35.41,16.43c-0.253,0-0.458-0.214-0.458-0.479V4.3c0-0.264,0.205-0.479,0.458-0.479c0.253,0,0.458,0.214,0.458,0.479&#9;&#9;&#9;&#9;v11.652C35.868,16.216,35.663,16.43,35.41,16.43z"/>
                            <path d="M27,52c-0.253,0-0.458-0.214-0.458-0.479v-24.21c0-0.264,0.205-0.479,0.458-0.479s0.458,0.214,0.458,0.479v24.21&#9;&#9;&#9;&#9;C27.458,51.786,27.253,52,27,52z"/>
                          </g>
                          <g>
                            <path d="M46.992,38.012h-0.916c0-2.282-0.391-3.959-2.392-5.78c-0.108-0.098-0.329-0.269-0.586-0.466&#9;&#9;&#9;&#9;c-1.054-0.811-3.015-2.322-3.968-4.016l-0.063-0.112v-7.517l0.853,1.516c0.858,1.525,2.721,2.96,3.722,3.731&#9;&#9;&#9;&#9;c0.295,0.227,0.508,0.391,0.644,0.515c1.176,1.07,1.861,2.115,2.248,3.223c0.387-1.109,1.072-2.153,2.248-3.223&#9;&#9;&#9;&#9;c0.136-0.123,0.349-0.288,0.644-0.515c1.001-0.771,2.864-2.205,3.721-3.73L54,20.121v7.517l-0.063,0.112&#9;&#9;&#9;&#9;c-0.953,1.694-2.913,3.204-3.967,4.015c-0.257,0.198-0.479,0.369-0.586,0.467C47.383,34.053,46.992,35.73,46.992,38.012z&#9;&#9;&#9;&#9;M39.983,27.375c0.883,1.484,2.681,2.869,3.658,3.621c0.295,0.227,0.508,0.391,0.644,0.515c1.176,1.07,1.861,2.114,2.248,3.223&#9;&#9;&#9;&#9;c0.387-1.109,1.072-2.153,2.248-3.223c0.136-0.124,0.349-0.288,0.644-0.515c0.977-0.752,2.775-2.137,3.658-3.621v-4.049&#9;&#9;&#9;&#9;c-1.006,1.188-2.319,2.199-3.115,2.812c-0.257,0.198-0.478,0.368-0.586,0.466c-2,1.82-2.392,3.498-2.392,5.78h-0.916&#9;&#9;&#9;&#9;c0-2.282-0.391-3.959-2.392-5.78c-0.108-0.098-0.329-0.268-0.585-0.466c-0.796-0.613-2.11-1.624-3.116-2.813V27.375z"/>
                            <path d="M49.95,26.037c-0.043,0-0.087-0.006-0.131-0.02c-0.242-0.075-0.38-0.342-0.308-0.595c0.563-1.977,0.642-3.664-0.698-5.963&#9;&#9;&#9;&#9;c-0.074-0.126-0.234-0.356-0.42-0.623c-0.498-0.715-1.263-1.812-1.858-3.011c-0.595,1.199-1.36,2.296-1.859,3.011&#9;&#9;&#9;&#9;c-0.186,0.267-0.346,0.497-0.42,0.623c-1.34,2.298-1.261,3.985-0.698,5.962c0.072,0.253-0.066,0.52-0.308,0.595&#9;&#9;&#9;&#9;c-0.242,0.076-0.497-0.069-0.57-0.322c-0.617-2.167-0.718-4.141,0.794-6.734c0.094-0.16,0.248-0.381,0.462-0.688&#9;&#9;&#9;&#9;c0.604-0.867,1.615-2.318,2.174-3.763l0.425-1.098l0.425,1.098c0.559,1.445,1.57,2.896,2.174,3.763&#9;&#9;&#9;&#9;c0.214,0.307,0.368,0.529,0.462,0.688c1.513,2.593,1.412,4.568,0.794,6.735C50.329,25.903,50.147,26.037,49.95,26.037z"/>
                            <path d="M48.524,27.268c-0.202,0-0.387-0.14-0.442-0.354c-0.173-0.669-0.467-1.352-0.897-2.09&#9;&#9;&#9;&#9;c-0.074-0.128-0.238-0.362-0.426-0.633c-0.069-0.099-0.145-0.208-0.225-0.324c-0.081,0.117-0.157,0.226-0.226,0.325&#9;&#9;&#9;&#9;c-0.189,0.271-0.352,0.505-0.426,0.633c-0.43,0.738-0.724,1.421-0.897,2.09c-0.066,0.255-0.317,0.406-0.562,0.337&#9;&#9;&#9;&#9;c-0.244-0.069-0.388-0.332-0.322-0.587c0.196-0.757,0.522-1.521,0.999-2.338c0.094-0.161,0.251-0.386,0.467-0.697&#9;&#9;&#9;&#9;c0.176-0.252,0.375-0.538,0.59-0.862l0.376-0.565l0.376,0.565c0.215,0.323,0.414,0.609,0.59,0.861&#9;&#9;&#9;&#9;c0.217,0.312,0.374,0.537,0.468,0.698c0.476,0.816,0.803,1.58,0.999,2.338c0.066,0.255-0.078,0.518-0.322,0.587&#9;&#9;&#9;&#9;C48.604,27.263,48.563,27.268,48.524,27.268z"/>
                            <path d="M46.992,43.64h-0.916c0-2.282-0.391-3.96-2.392-5.78c-0.108-0.098-0.329-0.269-0.586-0.466&#9;&#9;&#9;&#9;c-1.054-0.811-3.015-2.322-3.968-4.016l-0.063-0.112V25.75l0.853,1.516c0.858,1.525,2.721,2.96,3.722,3.731&#9;&#9;&#9;&#9;c0.295,0.227,0.508,0.391,0.644,0.515c1.176,1.07,1.861,2.115,2.248,3.223c0.387-1.109,1.072-2.153,2.248-3.223&#9;&#9;&#9;&#9;c0.136-0.123,0.349-0.288,0.644-0.515c1.001-0.771,2.864-2.205,3.721-3.73L54,25.749v7.517l-0.063,0.112&#9;&#9;&#9;&#9;c-0.953,1.694-2.913,3.204-3.967,4.015c-0.257,0.198-0.479,0.369-0.586,0.467C47.383,39.681,46.992,41.358,46.992,43.64z&#9;&#9;&#9;&#9;M39.983,33.003c0.883,1.484,2.681,2.869,3.658,3.621c0.295,0.227,0.508,0.391,0.644,0.515c1.176,1.07,1.861,2.114,2.248,3.223&#9;&#9;&#9;&#9;c0.387-1.109,1.072-2.153,2.248-3.223c0.136-0.124,0.349-0.288,0.644-0.515c0.977-0.752,2.775-2.137,3.658-3.621v-4.049&#9;&#9;&#9;&#9;c-1.006,1.188-2.319,2.199-3.115,2.812c-0.257,0.198-0.478,0.368-0.586,0.466c-2,1.82-2.392,3.498-2.392,5.78h-0.916&#9;&#9;&#9;&#9;c0-2.282-0.391-3.959-2.392-5.78c-0.108-0.098-0.329-0.268-0.585-0.466c-0.796-0.613-2.11-1.624-3.116-2.813V33.003z"/>
                            <path d="M46.992,49.269h-0.916c0-2.282-0.391-3.96-2.392-5.78c-0.108-0.098-0.329-0.269-0.586-0.467&#9;&#9;&#9;&#9;c-0.52-0.4-1.231-0.948-1.945-1.605c-1.326-1.22-2.086-2.979-2.086-4.826v-5.214l0.853,1.516c0.858,1.525,2.721,2.96,3.722,3.731&#9;&#9;&#9;&#9;c0.295,0.227,0.508,0.391,0.644,0.515c1.176,1.07,1.861,2.114,2.248,3.223c0.387-1.109,1.072-2.153,2.248-3.223&#9;&#9;&#9;&#9;c0.136-0.123,0.349-0.288,0.644-0.515c1.001-0.771,2.864-2.205,3.721-3.73L54,31.378v5.215c0,1.847-0.76,3.606-2.086,4.826&#9;&#9;&#9;&#9;c-0.713,0.656-1.425,1.205-1.945,1.605c-0.257,0.198-0.478,0.368-0.586,0.466C47.383,45.309,46.992,46.986,46.992,49.269z&#9;&#9;&#9;&#9;M39.983,34.582v2.01c0,1.572,0.647,3.069,1.775,4.107c0.683,0.629,1.377,1.163,1.883,1.552c0.295,0.227,0.509,0.392,0.644,0.515&#9;&#9;&#9;&#9;c1.176,1.07,1.861,2.114,2.248,3.223c0.387-1.109,1.072-2.153,2.248-3.223c0.136-0.123,0.349-0.288,0.644-0.515&#9;&#9;&#9;&#9;c0.506-0.39,1.199-0.924,1.883-1.553c1.128-1.038,1.775-2.535,1.775-4.107v-2.01c-1.006,1.188-2.319,2.199-3.115,2.812&#9;&#9;&#9;&#9;c-0.257,0.198-0.478,0.368-0.586,0.466c-2,1.82-2.392,3.498-2.392,5.78h-0.916c0-2.282-0.391-3.959-2.392-5.78&#9;&#9;&#9;&#9;c-0.108-0.098-0.329-0.268-0.585-0.466C42.303,36.782,40.989,35.77,39.983,34.582z"/>
                            <path d="M39.525,22.358c-0.253,0-0.458-0.214-0.458-0.479v-9.71c0-0.264,0.205-0.479,0.458-0.479c0.253,0,0.458,0.214,0.458,0.479&#9;&#9;&#9;&#9;v9.71C39.983,22.144,39.778,22.358,39.525,22.358z"/>
                            <path d="M46.534,15.168c-0.253,0-0.458-0.214-0.458-0.479V8.985c0-0.264,0.205-0.479,0.458-0.479s0.458,0.214,0.458,0.479v5.704&#9;&#9;&#9;&#9;C46.992,14.953,46.787,15.168,46.534,15.168z"/>
                            <path d="M53.542,22.358c-0.253,0-0.458-0.214-0.458-0.479v-9.71c0-0.264,0.205-0.479,0.458-0.479S54,11.906,54,12.17v9.71&#9;&#9;&#9;&#9;C54,22.144,53.795,22.358,53.542,22.358z"/>
                            <path d="M46.534,52c-0.253,0-0.458-0.214-0.458-0.479V31.347c0-0.264,0.205-0.479,0.458-0.479s0.458,0.214,0.458,0.479v20.175&#9;&#9;&#9;&#9;C46.992,51.786,46.787,52,46.534,52z"/>
                          </g>
                        </g>
                      </svg>